<?xml version="1.0" standalone="no"?>
<!DOCTYPE svg PUBLIC "-//W3C//DTD SVG 20010904//EN"
 "http://www.w3.org/TR/2001/REC-SVG-20010904/DTD/svg10.dtd">
<svg version="1.0" xmlns="http://www.w3.org/2000/svg"
 width="1188.000000pt" height="1280.000000pt" viewBox="0 0 1188.000000 1280.000000"
 preserveAspectRatio="xMidYMid meet">
<metadata>
Created by potrace 1.15, written by Peter Selinger 2001-2017
</metadata>
<g transform="translate(0.000000,1280.000000) scale(0.100000,-0.100000)"
fill="#000000" stroke="none">
<path d="M6095 12794 c-198 -13 -453 -38 -603 -59 -1126 -163 -2195 -626
-3084 -1337 -421 -337 -806 -732 -1124 -1154 -1228 -1632 -1603 -3781 -999
-5729 229 -739 608 -1463 1079 -2060 217 -276 606 -686 846 -891 851 -730
1826 -1210 2910 -1433 1222 -251 2509 -135 3663 330 760 307 1422 733 2037
1312 179 168 584 575 560 561 -8 -4 -164 -112 -346 -239 -182 -127 -404 -276
-495 -330 -695 -419 -1453 -666 -2271 -741 -213 -20 -666 -22 -873 -5 -1056
88 -2054 475 -2870 1115 -253 198 -580 513 -774 745 -717 859 -1128 1838
-1237 2951 -24 239 -24 710 0 950 109 1113 516 2094 1226 2950 124 150 451
479 609 614 1306 1110 3051 1526 4706 1122 618 -152 1180 -398 1702 -747 260
-174 408 -293 758 -611 288 -261 356 -321 339 -298 -141 186 -502 645 -578
735 -458 539 -999 997 -1605 1357 -819 486 -1731 780 -2711 873 -156 15 -729
27 -865 19z"/>
</g>
</svg>
