<?xml version="1.0" standalone="no"?>
<!DOCTYPE svg PUBLIC "-//W3C//DTD SVG 20010904//EN"
 "http://www.w3.org/TR/2001/REC-SVG-20010904/DTD/svg10.dtd">
<svg version="1.0" xmlns="http://www.w3.org/2000/svg"
 width="1218.000000pt" height="1280.000000pt" viewBox="0 0 1218.000000 1280.000000"
 preserveAspectRatio="xMidYMid meet">
<metadata>
Created by potrace 1.15, written by Peter Selinger 2001-2017
</metadata>
<g transform="translate(0.000000,1280.000000) scale(0.100000,-0.100000)"
fill="#000000" stroke="none">
<path d="M5497 11774 c-323 -560 -586 -1019 -584 -1021 3 -2 52 10 110 26 697
196 1373 197 2106 5 73 -19 135 -33 137 -31 5 5 -1168 2037 -1176 2037 -3 0
-270 -457 -593 -1016z"/>
<path d="M2330 11556 c0 -15 235 -2267 242 -2320 2 -14 16 -3 53 45 376 485
825 853 1365 1118 125 62 365 163 484 205 10 3 17 8 15 10 -6 6 -2122 948
-2141 953 -12 4 -18 0 -18 -11z"/>
<path d="M8758 11092 c-587 -262 -1064 -479 -1060 -482 4 -4 54 -24 112 -45
667 -241 1266 -679 1722 -1256 53 -68 74 -88 76 -73 7 54 242 2305 242 2318 0
9 -6 16 -12 15 -7 0 -493 -215 -1080 -477z"/>
<path d="M5785 10583 c-1222 -100 -2313 -693 -3040 -1653 -835 -1103 -1071
-2551 -630 -3867 315 -939 960 -1741 1809 -2251 556 -334 1140 -525 1799 -588
213 -20 641 -15 847 11 612 75 1167 265 1686 577 999 599 1707 1599 1943 2746
58 279 82 529 82 842 0 248 -10 391 -41 607 -186 1271 -944 2385 -2060 3028
-385 222 -837 391 -1280 479 -264 52 -433 68 -760 71 -168 1 -327 1 -355 -2z"/>
<path d="M2260 8859 c-19 -5 -323 -70 -675 -145 -1211 -256 -1579 -335 -1581
-337 -1 -1 354 -397 790 -880 l791 -878 12 181 c13 212 26 315 59 500 94 515
302 1024 603 1474 26 39 51 77 55 84 8 14 -3 14 -54 1z"/>
<path d="M9866 8858 c4 -7 38 -58 74 -113 103 -154 175 -281 265 -469 221
-457 340 -922 375 -1466 6 -96 12 -179 13 -183 1 -4 358 387 794 870 435 483
790 879 789 880 -1 2 -107 25 -641 138 -88 19 -234 50 -325 69 -91 19 -410 87
-710 151 -300 63 -564 119 -587 125 -53 13 -56 13 -47 -2z"/>
<path d="M793 5304 c-435 -484 -790 -880 -789 -881 1 -1 545 -117 1376 -293
648 -138 886 -188 914 -196 34 -8 38 -18 -54 121 -103 154 -175 282 -265 469
-220 455 -339 919 -375 1461 -6 94 -12 176 -13 184 -1 7 -358 -382 -794 -865z"/>
<path d="M10582 5987 c-45 -709 -251 -1330 -640 -1927 -44 -69 -79 -126 -78
-127 2 -2 43 6 92 17 49 11 514 110 1034 220 520 110 1000 212 1068 227 l123
26 -34 36 c-19 20 -362 401 -762 846 -400 446 -742 825 -759 843 l-32 33 -12
-194z"/>
<path d="M2451 2411 c-68 -645 -121 -1174 -118 -1177 3 -3 489 210 1081 473
591 263 1072 481 1068 484 -4 3 -65 27 -136 53 -678 251 -1245 674 -1741 1301
l-31 38 -123 -1172z"/>
<path d="M9535 3495 c-148 -190 -298 -351 -470 -504 -396 -353 -788 -582
-1360 -796 -17 -6 -15 -9 20 -25 22 -9 507 -225 1078 -479 571 -255 1041 -460
1044 -457 4 4 -227 2252 -240 2336 -1 8 -33 -26 -72 -75z"/>
<path d="M4911 2043 c10 -26 1174 -2033 1179 -2033 5 0 1169 2007 1179 2033 4
11 11 13 -198 -43 -338 -89 -606 -123 -966 -124 -358 0 -657 37 -990 124 -207
54 -208 55 -204 43z"/>
</g>
</svg>
